<svg width="9" height="6" viewBox="0 0 9 6" fill="none" xmlns="http://www.w3.org/2000/svg">
<path d="M8.53516 0.234375C8.47005 0.169271 8.38542 0.113932 8.28125 0.0683594C8.17708 0.0227866 8.06641 0 7.94922 0C7.83203 0 7.72461 0.0227866 7.62695 0.0683594C7.5293 0.113932 7.44141 0.169271 7.36328 0.234375L4.375 3.18359L1.42578 0.234375C1.34766 0.169271 1.25977 0.113932 1.16211 0.0683594C1.06445 0.0227866 0.957031 0 0.839844 0C0.722656 0 0.615234 0.0227866 0.517578 0.0683594C0.419922 0.113932 0.332031 0.169271 0.253906 0.234375C0.175781 0.3125 0.113932 0.403646 0.0683594 0.507812C0.0227865 0.611979 0 0.722656 0 0.839844C0 0.94401 0.0227865 1.04818 0.0683594 1.15234C0.113932 1.25651 0.175781 1.34766 0.253906 1.42578L3.78906 4.96094C3.86719 5.03906 3.95508 5.09766 4.05273 5.13672C4.15039 5.17578 4.25781 5.19531 4.375 5.19531C4.49219 5.19531 4.59961 5.17578 4.69727 5.13672C4.79492 5.09766 4.88281 5.03906 4.96094 4.96094L8.53516 1.42578C8.61328 1.34766 8.67513 1.25651 8.7207 1.15234C8.76628 1.04818 8.78906 0.94401 8.78906 0.839844C8.78906 0.722656 8.76628 0.611979 8.7207 0.507812C8.67513 0.403646 8.61328 0.3125 8.53516 0.234375Z" fill="#5EB9F0"/>
</svg>
