<svg width="12" height="12" viewBox="0 0 12 12" fill="none" xmlns="http://www.w3.org/2000/svg">
<path d="M11.9297 5.625C11.8984 5.5625 11.8633 5.50391 11.8242 5.44922C11.7852 5.39453 11.75 5.34375 11.7188 5.29688L6.70312 0.28125C6.60938 0.203125 6.50391 0.136719 6.38672 0.0820312C6.26953 0.0273438 6.14062 0 6 0C5.71875 0 5.48047 0.0976562 5.28516 0.292969C5.08984 0.488281 4.99219 0.726562 4.99219 1.00781C4.99219 1.14844 5.01953 1.27734 5.07422 1.39453C5.12891 1.51172 5.20312 1.61719 5.29688 1.71094L8.60156 4.99219H1.00781C0.726562 4.99219 0.488281 5.08984 0.292969 5.28516C0.0976563 5.48047 0 5.71875 0 6C0 6.28125 0.0976563 6.51953 0.292969 6.71484C0.488281 6.91016 0.726562 7.00781 1.00781 7.00781H8.60156L5.29688 10.2891C5.20312 10.3828 5.12891 10.4883 5.07422 10.6055C5.01953 10.7227 4.99219 10.8516 4.99219 10.9922C4.99219 11.1328 5.01953 11.2656 5.07422 11.3906C5.12891 11.5156 5.20312 11.625 5.29688 11.7188C5.39062 11.7969 5.49609 11.8633 5.61328 11.918C5.73047 11.9727 5.85938 12 6 12C6.14062 12 6.26953 11.9727 6.38672 11.918C6.50391 11.8633 6.60938 11.7969 6.70312 11.7188L11.7188 6.70312C11.75 6.65625 11.7852 6.60547 11.8242 6.55078C11.8633 6.49609 11.8906 6.44531 11.9062 6.39844L11.9297 6.375C11.9453 6.32812 11.9609 6.26953 11.9766 6.19922C11.9922 6.12891 12 6.0625 12 6C12 5.9375 11.9922 5.87109 11.9766 5.80078C11.9609 5.73047 11.9375 5.67188 11.9062 5.625H11.9297Z" fill="white"/>
</svg>
