<svg width="17" height="17" viewBox="0 0 17 17" fill="none" xmlns="http://www.w3.org/2000/svg">
<path d="M8.33984 0C7.19401 0 6.11328 0.221354 5.09766 0.664062C4.08203 1.09375 3.19661 1.6862 2.44141 2.44141C1.6862 3.19661 1.09375 4.08203 0.664062 5.09766C0.221354 6.11328 0 7.19401 0 8.33984C0 9.48568 0.221354 10.5664 0.664062 11.582C1.09375 12.5977 1.6862 13.4831 2.44141 14.2383C3.19661 14.9935 4.08203 15.5859 5.09766 16.0156C6.11328 16.4583 7.19401 16.6797 8.33984 16.6797C9.48568 16.6797 10.5664 16.4583 11.582 16.0156C12.5977 15.5859 13.4831 14.9935 14.2383 14.2383C14.9935 13.4831 15.5859 12.5977 16.0156 11.582C16.4583 10.5664 16.6797 9.48568 16.6797 8.33984C16.6797 7.19401 16.4583 6.11328 16.0156 5.09766C15.5859 4.08203 14.9935 3.19661 14.2383 2.44141C13.4831 1.6862 12.5977 1.09375 11.582 0.664062C10.5664 0.221354 9.48568 0 8.33984 0ZM8.33984 1.67969C9.23828 1.67969 10.0814 1.84245 10.8691 2.16797C11.6569 2.49349 12.3438 2.94271 12.9297 3.51562C12.3568 3.86719 11.7415 4.19271 11.084 4.49219C10.4264 4.79167 9.7526 5.05859 9.0625 5.29297L8.90625 5.33203C8.52865 4.69401 8.14128 4.0918 7.74414 3.52539C7.34701 2.95898 6.92708 2.41536 6.48438 1.89453L6.52344 1.93359C6.79688 1.85547 7.08659 1.79362 7.39258 1.74805C7.69857 1.70247 8.01432 1.67969 8.33984 1.67969ZM4.92188 2.63672C5.33854 3.10547 5.73893 3.60026 6.12305 4.12109C6.50716 4.64193 6.86849 5.18229 7.20703 5.74219L7.26562 5.83984C6.51042 6.03516 5.70964 6.1849 4.86328 6.28906C4.01693 6.39323 3.15104 6.45182 2.26562 6.46484H1.95312C2.20052 5.64453 2.57812 4.90885 3.08594 4.25781C3.59375 3.60677 4.19271 3.07292 4.88281 2.65625L4.92188 2.63672ZM3.33984 12.7734C2.81901 12.1875 2.41211 11.5202 2.11914 10.7715C1.82617 10.0228 1.67969 9.22526 1.67969 8.37891C1.67969 8.37891 1.67969 8.37565 1.67969 8.36914C1.67969 8.36263 1.67969 8.35286 1.67969 8.33984C1.67969 8.30078 1.67969 8.26172 1.67969 8.22266C1.67969 8.18359 1.67969 8.14453 1.67969 8.10547H2.24609C3.28776 8.09245 4.30664 8.01107 5.30273 7.86133C6.29883 7.71159 7.27214 7.5 8.22266 7.22656L8.06641 7.26562C8.20964 7.51302 8.3431 7.77018 8.4668 8.03711C8.5905 8.30404 8.71094 8.57422 8.82812 8.84766C8.15104 9.08203 7.51302 9.37174 6.91406 9.7168C6.3151 10.0618 5.75521 10.4427 5.23438 10.8594L5.25391 10.8398L5 11.0547C4.70052 11.3151 4.41406 11.5853 4.14062 11.8652C3.86719 12.1452 3.60677 12.4349 3.35938 12.7344L3.33984 12.7734ZM8.33984 15C8.33984 15 8.33659 15 8.33008 15C8.32357 15 8.32031 15 8.32031 15C7.63021 15 6.9694 14.8991 6.33789 14.6973C5.70638 14.4954 5.1237 14.2122 4.58984 13.8477L4.60938 13.8672C4.81771 13.6328 5.0293 13.4082 5.24414 13.1934C5.45898 12.9785 5.67708 12.7669 5.89844 12.5586L5.91797 12.5391L6.17188 12.3242C6.65365 11.9206 7.16797 11.5625 7.71484 11.25C8.26172 10.9375 8.83464 10.6706 9.43359 10.4492L9.51172 10.4297C9.73307 11.0156 9.94141 11.6471 10.1367 12.3242C10.332 13.0013 10.5013 13.7044 10.6445 14.4336L10.6836 14.5898C10.3451 14.7201 9.97721 14.821 9.58008 14.8926C9.18294 14.9642 8.78255 15 8.37891 15C8.36589 15 8.35612 15 8.34961 15C8.3431 15 8.33984 15 8.33984 15ZM12.207 13.7695C12.0378 13.0273 11.862 12.3372 11.6797 11.6992C11.4974 11.0612 11.2956 10.4427 11.0742 9.84375L11.1328 10.0391H11.4062C11.4193 10.0391 11.429 10.0391 11.4355 10.0391C11.4421 10.0391 11.4518 10.0391 11.4648 10.0391C11.4779 10.0391 11.4876 10.0391 11.4941 10.0391C11.5007 10.0391 11.5104 10.0391 11.5234 10.0391H12.0898C12.5456 10.0521 12.9948 10.0977 13.4375 10.1758C13.8802 10.2539 14.3099 10.3646 14.7266 10.5078L14.668 10.4883C14.4336 11.1654 14.1048 11.7806 13.6816 12.334C13.2585 12.8874 12.7734 13.3594 12.2266 13.75L12.207 13.7695ZM12.0898 8.33984C11.9987 8.33984 11.9108 8.33984 11.8262 8.33984C11.7415 8.33984 11.6602 8.33984 11.582 8.33984C11.556 8.33984 11.5267 8.33659 11.4941 8.33008C11.4616 8.32357 11.4323 8.32031 11.4062 8.32031C11.3802 8.32031 11.3542 8.32357 11.3281 8.33008C11.3021 8.33659 11.276 8.33984 11.25 8.33984C11.1198 8.35286 10.9961 8.36589 10.8789 8.37891C10.7617 8.39193 10.651 8.41146 10.5469 8.4375L10.5664 8.41797H10.4883C10.3711 8.14453 10.2474 7.87109 10.1172 7.59766C9.98698 7.32422 9.85677 7.04427 9.72656 6.75781C10.5469 6.47135 11.3151 6.15885 12.0312 5.82031C12.7474 5.48177 13.4375 5.11068 14.1016 4.70703L14.0039 4.76562C14.3164 5.26042 14.5605 5.80729 14.7363 6.40625C14.9121 7.00521 15 7.63021 15 8.28125C15 8.29427 15 8.30404 15 8.31055C15 8.31706 15 8.32682 15 8.33984C15 8.40495 15 8.47331 15 8.54492C15 8.61654 15 8.69141 15 8.76953C14.5833 8.6263 14.1374 8.51888 13.6621 8.44727C13.1868 8.37565 12.6953 8.33984 12.1875 8.33984C12.1745 8.33984 12.1582 8.33984 12.1387 8.33984C12.1191 8.33984 12.1029 8.33984 12.0898 8.33984Z" fill="white"/>
</svg>
