<svg width="20" height="20" viewBox="0 0 20 20" fill="none" xmlns="http://www.w3.org/2000/svg">
<path d="M8.33984 1.66016C7.19401 1.66016 6.11328 1.88151 5.09766 2.32422C4.08203 2.75391 3.19661 3.34635 2.44141 4.10156C1.6862 4.85677 1.09375 5.74219 0.664062 6.75781C0.221354 7.77344 0 8.85417 0 10C0 11.1458 0.221354 12.2266 0.664062 13.2422C1.09375 14.2578 1.6862 15.1432 2.44141 15.8984C3.19661 16.6536 4.08203 17.2461 5.09766 17.6758C6.11328 18.1185 7.19401 18.3398 8.33984 18.3398C9.48568 18.3398 10.5664 18.1185 11.582 17.6758C12.5977 17.2461 13.4831 16.6536 14.2383 15.8984C14.9935 15.1432 15.5859 14.2578 16.0156 13.2422C16.4583 12.2266 16.6797 11.1458 16.6797 10C16.6797 8.85417 16.4583 7.77344 16.0156 6.75781C15.5859 5.74219 14.9935 4.85677 14.2383 4.10156C13.4831 3.34635 12.5977 2.75391 11.582 2.32422C10.5664 1.88151 9.48568 1.66016 8.33984 1.66016ZM8.33984 3.33984C9.23828 3.33984 10.0814 3.5026 10.8691 3.82812C11.6569 4.15365 12.3438 4.60286 12.9297 5.17578C12.3568 5.52734 11.7415 5.85286 11.084 6.15234C10.4264 6.45182 9.7526 6.71875 9.0625 6.95312L8.90625 6.99219C8.52865 6.35417 8.14128 5.75195 7.74414 5.18555C7.34701 4.61914 6.92708 4.07552 6.48438 3.55469L6.52344 3.59375C6.79688 3.51562 7.08659 3.45378 7.39258 3.4082C7.69857 3.36263 8.01432 3.33984 8.33984 3.33984ZM4.92188 4.29688C5.33854 4.76562 5.73893 5.26042 6.12305 5.78125C6.50716 6.30208 6.86849 6.84245 7.20703 7.40234L7.26562 7.5C6.51042 7.69531 5.70964 7.84505 4.86328 7.94922C4.01693 8.05339 3.15104 8.11198 2.26562 8.125H1.95312C2.20052 7.30469 2.57812 6.56901 3.08594 5.91797C3.59375 5.26693 4.19271 4.73307 4.88281 4.31641L4.92188 4.29688ZM3.33984 14.4336C2.81901 13.8477 2.41211 13.1803 2.11914 12.4316C1.82617 11.6829 1.67969 10.8854 1.67969 10.0391C1.67969 10.0391 1.67969 10.0358 1.67969 10.0293C1.67969 10.0228 1.67969 10.013 1.67969 10C1.67969 9.96094 1.67969 9.92188 1.67969 9.88281C1.67969 9.84375 1.67969 9.80469 1.67969 9.76562H2.24609C3.28776 9.7526 4.30664 9.67122 5.30273 9.52148C6.29883 9.37174 7.27214 9.16016 8.22266 8.88672L8.06641 8.92578C8.20964 9.17318 8.3431 9.43034 8.4668 9.69727C8.59049 9.96419 8.71094 10.2344 8.82812 10.5078C8.15104 10.7422 7.51302 11.0319 6.91406 11.377C6.3151 11.722 5.75521 12.1029 5.23438 12.5195L5.25391 12.5L5 12.7148C4.70052 12.9753 4.41406 13.2454 4.14062 13.5254C3.86719 13.8053 3.60677 14.0951 3.35938 14.3945L3.33984 14.4336ZM8.33984 16.6602C8.33984 16.6602 8.33659 16.6602 8.33008 16.6602C8.32357 16.6602 8.32031 16.6602 8.32031 16.6602C7.63021 16.6602 6.9694 16.5592 6.33789 16.3574C5.70638 16.1556 5.1237 15.8724 4.58984 15.5078L4.60938 15.5273C4.81771 15.293 5.0293 15.0684 5.24414 14.8535C5.45898 14.6387 5.67708 14.4271 5.89844 14.2188L5.91797 14.1992L6.17188 13.9844C6.65365 13.5807 7.16797 13.2227 7.71484 12.9102C8.26172 12.5977 8.83464 12.3307 9.43359 12.1094L9.51172 12.0898C9.73307 12.6758 9.94141 13.3073 10.1367 13.9844C10.332 14.6615 10.5013 15.3646 10.6445 16.0938L10.6836 16.25C10.3451 16.3802 9.97721 16.4811 9.58008 16.5527C9.18294 16.6243 8.78255 16.6602 8.37891 16.6602C8.36589 16.6602 8.35612 16.6602 8.34961 16.6602C8.3431 16.6602 8.33984 16.6602 8.33984 16.6602ZM12.207 15.4297C12.0378 14.6875 11.862 13.9974 11.6797 13.3594C11.4974 12.7214 11.2956 12.1029 11.0742 11.5039L11.1328 11.6992H11.4062C11.4193 11.6992 11.429 11.6992 11.4355 11.6992C11.4421 11.6992 11.4518 11.6992 11.4648 11.6992C11.4779 11.6992 11.4876 11.6992 11.4941 11.6992C11.5007 11.6992 11.5104 11.6992 11.5234 11.6992H12.0898C12.5456 11.7122 12.9948 11.7578 13.4375 11.8359C13.8802 11.9141 14.3099 12.0247 14.7266 12.168L14.668 12.1484C14.4336 12.8255 14.1048 13.4408 13.6816 13.9941C13.2585 14.5475 12.7734 15.0195 12.2266 15.4102L12.207 15.4297ZM12.0898 10C11.9987 10 11.9108 10 11.8262 10C11.7415 10 11.6602 10 11.582 10C11.556 10 11.5267 9.99674 11.4941 9.99023C11.4616 9.98372 11.4323 9.98047 11.4062 9.98047C11.3802 9.98047 11.3542 9.98372 11.3281 9.99023C11.3021 9.99674 11.276 10 11.25 10C11.1198 10.013 10.9961 10.026 10.8789 10.0391C10.7617 10.0521 10.651 10.0716 10.5469 10.0977L10.5664 10.0781H10.4883C10.3711 9.80469 10.2474 9.53125 10.1172 9.25781C9.98698 8.98438 9.85677 8.70443 9.72656 8.41797C10.5469 8.13151 11.3151 7.81901 12.0312 7.48047C12.7474 7.14193 13.4375 6.77083 14.1016 6.36719L14.0039 6.42578C14.3164 6.92057 14.5605 7.46745 14.7363 8.06641C14.9121 8.66536 15 9.29036 15 9.94141C15 9.95443 15 9.96419 15 9.9707C15 9.97721 15 9.98698 15 10C15 10.0651 15 10.1335 15 10.2051C15 10.2767 15 10.3516 15 10.4297C14.5833 10.2865 14.1374 10.179 13.6621 10.1074C13.1868 10.0358 12.6953 10 12.1875 10C12.1745 10 12.1582 10 12.1387 10C12.1191 10 12.1029 10 12.0898 10Z" fill="#E94D88"/>
</svg>
