<svg width="17" height="14" viewBox="0 0 17 14" fill="none" xmlns="http://www.w3.org/2000/svg">
<path d="M16.6992 1.62109C16.4128 1.7513 16.1035 1.86198 15.7715 1.95312C15.4395 2.04427 15.1042 2.11589 14.7656 2.16797H14.7266C15.0781 1.94661 15.3841 1.67643 15.6445 1.35742C15.9049 1.03841 16.1003 0.683594 16.2305 0.292969V0.273438C15.918 0.455729 15.5827 0.618489 15.2246 0.761719C14.8665 0.904948 14.4922 1.01562 14.1016 1.09375L14.0625 1.11328C13.75 0.774739 13.3757 0.504558 12.9395 0.302734C12.5033 0.100911 12.0378 0 11.543 0C10.6055 0 9.80143 0.335286 9.13086 1.00586C8.46029 1.67643 8.125 2.48047 8.125 3.41797C8.125 3.5612 8.13477 3.70117 8.1543 3.83789C8.17383 3.97461 8.19661 4.10807 8.22266 4.23828V4.21875C7.51953 4.17969 6.83594 4.06901 6.17188 3.88672C5.50781 3.70443 4.8763 3.46029 4.27734 3.1543C3.67839 2.84831 3.11849 2.48698 2.59766 2.07031C2.08984 1.64062 1.62109 1.17188 1.19141 0.664062V0.644531C1.04818 0.891927 0.934245 1.16211 0.849609 1.45508C0.764974 1.74805 0.722656 2.05078 0.722656 2.36328C0.722656 2.3763 0.722656 2.38281 0.722656 2.38281C0.722656 2.96875 0.859375 3.50911 1.13281 4.00391C1.40625 4.4987 1.77083 4.90234 2.22656 5.21484H2.24609C1.95964 5.20182 1.68294 5.1595 1.41602 5.08789C1.14909 5.01628 0.904948 4.91536 0.683594 4.78516V4.82422C0.696615 5.64453 0.963542 6.36719 1.48438 6.99219C2.00521 7.61719 2.64974 8.00781 3.41797 8.16406H3.4375C3.30729 8.20312 3.16406 8.23568 3.00781 8.26172C2.85156 8.28776 2.6888 8.30078 2.51953 8.30078C2.41536 8.30078 2.30794 8.29753 2.19727 8.29102C2.08659 8.28451 1.97266 8.26823 1.85547 8.24219H1.875C2.10938 8.93229 2.51628 9.49544 3.0957 9.93164C3.67513 10.3678 4.33594 10.5924 5.07812 10.6055C4.50521 11.0612 3.85742 11.4193 3.13477 11.6797C2.41211 11.9401 1.65365 12.0768 0.859375 12.0898C0.859375 12.0898 0.85612 12.0898 0.849609 12.0898C0.843099 12.0898 0.839844 12.0898 0.839844 12.0898C0.696615 12.0898 0.553385 12.0833 0.410156 12.0703C0.266927 12.0573 0.130208 12.0443 0 12.0312H0.0195312C0.761719 12.513 1.57552 12.8906 2.46094 13.1641C3.34635 13.4375 4.27734 13.5742 5.25391 13.5742C5.25391 13.5742 5.25716 13.5742 5.26367 13.5742C5.27018 13.5742 5.27344 13.5742 5.27344 13.5742C5.28646 13.5742 5.29948 13.5742 5.3125 13.5742C5.32552 13.5742 5.34505 13.5742 5.37109 13.5742C6.69922 13.5742 7.94922 13.3203 9.12109 12.8125C10.293 12.3047 11.3184 11.6146 12.1973 10.7422C13.0762 9.86979 13.763 8.84766 14.2578 7.67578C14.7656 6.50391 15.0195 5.2474 15.0195 3.90625C15.0195 3.89323 15.0195 3.88021 15.0195 3.86719C15.0195 3.85417 15.0195 3.84115 15.0195 3.82812V3.84766C15.0195 3.76953 15.0195 3.69466 15.0195 3.62305C15.0195 3.55143 15.0195 3.47656 15.0195 3.39844C15.3451 3.15104 15.6478 2.88086 15.9277 2.58789C16.2077 2.29492 16.4583 1.98568 16.6797 1.66016L16.6992 1.62109Z" fill="#5DAED5"/>
</svg>
