<svg width="20" height="20" viewBox="0 0 20 20" fill="none" xmlns="http://www.w3.org/2000/svg">
<path d="M16.6992 4.82422C16.4128 4.95443 16.1035 5.0651 15.7715 5.15625C15.4395 5.2474 15.1042 5.31901 14.7656 5.37109H14.7266C15.0781 5.14974 15.3841 4.87956 15.6445 4.56055C15.9049 4.24154 16.1003 3.88672 16.2305 3.49609V3.47656C15.918 3.65885 15.5827 3.82161 15.2246 3.96484C14.8665 4.10807 14.4922 4.21875 14.1016 4.29688L14.0625 4.31641C13.75 3.97786 13.3757 3.70768 12.9395 3.50586C12.5033 3.30404 12.0378 3.20312 11.543 3.20312C10.6055 3.20312 9.80143 3.53841 9.13086 4.20898C8.46029 4.87956 8.125 5.68359 8.125 6.62109C8.125 6.76432 8.13477 6.9043 8.1543 7.04102C8.17383 7.17773 8.19661 7.3112 8.22266 7.44141V7.42188C7.51953 7.38281 6.83594 7.27214 6.17188 7.08984C5.50781 6.90755 4.8763 6.66341 4.27734 6.35742C3.67839 6.05143 3.11849 5.6901 2.59766 5.27344C2.08984 4.84375 1.62109 4.375 1.19141 3.86719V3.84766C1.04818 4.09505 0.934245 4.36523 0.849609 4.6582C0.764974 4.95117 0.722656 5.25391 0.722656 5.56641C0.722656 5.57943 0.722656 5.58594 0.722656 5.58594C0.722656 6.17188 0.859375 6.71224 1.13281 7.20703C1.40625 7.70182 1.77083 8.10547 2.22656 8.41797H2.24609C1.95964 8.40495 1.68294 8.36263 1.41602 8.29102C1.14909 8.2194 0.904948 8.11849 0.683594 7.98828V8.02734C0.696615 8.84766 0.963542 9.57031 1.48438 10.1953C2.00521 10.8203 2.64974 11.2109 3.41797 11.3672H3.4375C3.30729 11.4062 3.16406 11.4388 3.00781 11.4648C2.85156 11.4909 2.6888 11.5039 2.51953 11.5039C2.41536 11.5039 2.30794 11.5007 2.19727 11.4941C2.08659 11.4876 1.97266 11.4714 1.85547 11.4453H1.875C2.10938 12.1354 2.51628 12.6986 3.0957 13.1348C3.67513 13.571 4.33594 13.7956 5.07812 13.8086C4.50521 14.2643 3.85742 14.6224 3.13477 14.8828C2.41211 15.1432 1.65365 15.2799 0.859375 15.293C0.859375 15.293 0.85612 15.293 0.849609 15.293C0.843099 15.293 0.839844 15.293 0.839844 15.293C0.696615 15.293 0.553385 15.2865 0.410156 15.2734C0.266927 15.2604 0.130208 15.2474 0 15.2344H0.0195312C0.761719 15.7161 1.57552 16.0938 2.46094 16.3672C3.34635 16.6406 4.27734 16.7773 5.25391 16.7773C5.25391 16.7773 5.25716 16.7773 5.26367 16.7773C5.27018 16.7773 5.27344 16.7773 5.27344 16.7773C5.28646 16.7773 5.29948 16.7773 5.3125 16.7773C5.32552 16.7773 5.34505 16.7773 5.37109 16.7773C6.69922 16.7773 7.94922 16.5234 9.12109 16.0156C10.293 15.5078 11.3184 14.8177 12.1973 13.9453C13.0762 13.0729 13.763 12.0508 14.2578 10.8789C14.7656 9.70703 15.0195 8.45052 15.0195 7.10938C15.0195 7.09635 15.0195 7.08333 15.0195 7.07031C15.0195 7.05729 15.0195 7.04427 15.0195 7.03125V7.05078C15.0195 6.97266 15.0195 6.89779 15.0195 6.82617C15.0195 6.75456 15.0195 6.67969 15.0195 6.60156C15.3451 6.35417 15.6478 6.08398 15.9277 5.79102C16.2077 5.49805 16.4583 5.1888 16.6797 4.86328L16.6992 4.82422Z" fill="white"/>
</svg>
